<svg width="42" height="42" viewBox="0 0 42 42" fill="none" xmlns="http://www.w3.org/2000/svg">
<path d="M40.6875 14.4375C40.686 13.0456 40.1324 11.7111 39.1481 10.7269C38.1639 9.74263 36.8294 9.18902 35.4375 9.1875H31.5V7.875C31.4989 6.83104 31.0837 5.83016 30.3455 5.09197C29.6073 4.35378 28.6065 3.93859 27.5625 3.9375H14.4375C13.3935 3.93859 12.3927 4.35378 11.6545 5.09197C10.9163 5.83016 10.5011 6.83104 10.5 7.875V9.1875H6.5625C5.17058 9.18902 3.8361 9.74263 2.85187 10.7269C1.86763 11.7111 1.31402 13.0456 1.3125 14.4375V18.375H40.6875V14.4375ZM28.875 9.1875H13.125V7.875C13.125 7.5269 13.2633 7.19306 13.5094 6.94692C13.7556 6.70078 14.0894 6.5625 14.4375 6.5625H27.5625C27.9106 6.5625 28.2444 6.70078 28.4906 6.94692C28.7367 7.19306 28.875 7.5269 28.875 7.875V9.1875ZM27.5625 21.6562C27.5625 22.1784 27.3551 22.6792 26.9859 23.0484C26.6167 23.4176 26.1159 23.625 25.5938 23.625H16.4062C15.8841 23.625 15.3833 23.4176 15.0141 23.0484C14.6449 22.6792 14.4375 22.1784 14.4375 21.6562V21.3281C14.4375 21.2411 14.4029 21.1576 14.3414 21.0961C14.2799 21.0346 14.1964 21 14.1094 21H1.3125V32.8125C1.3125 34.2049 1.86562 35.5402 2.85019 36.5248C3.83476 37.5094 5.17011 38.0625 6.5625 38.0625H35.4375C36.8299 38.0625 38.1652 37.5094 39.1498 36.5248C40.1344 35.5402 40.6875 34.2049 40.6875 32.8125V21H27.8906C27.8036 21 27.7201 21.0346 27.6586 21.0961C27.5971 21.1576 27.5625 21.2411 27.5625 21.3281V21.6562Z" fill="black"/>
</svg>
