<svg width="38" height="50" viewBox="0 0 38 50" fill="none" xmlns="http://www.w3.org/2000/svg">
<path d="M0 7.50017V42.5002C0 43.8827 1.1175 45.0002 2.5 45.0002H10V40.0002H5V10.0002H10V5.00017H2.5C1.1175 5.00017 0 6.11767 0 7.50017ZM35.605 5.07517L15.605 0.0751727C14.8625 -0.112327 14.07 0.0551725 13.4625 0.530173C12.855 1.00517 12.5 1.73017 12.5 2.50017V47.5002C12.5 48.2702 12.855 48.9977 13.4625 49.4702C13.9075 49.8177 14.4475 50.0002 15 50.0002C15.2025 50.0002 15.405 49.9752 15.605 49.9252L35.605 44.9252C36.72 44.6452 37.5 43.6477 37.5 42.5002V7.50017C37.5 6.35267 36.72 5.35517 35.605 5.07517ZM25 25.4702C25 26.6177 24.2175 27.6152 23.105 27.8952C21.5275 28.2902 20 27.0977 20 25.4702V24.5277C20 22.9027 21.5275 21.7077 23.105 22.1027C24.22 22.3827 25 23.3827 25 24.5302V25.4702Z" fill="#D9D9D9"/>
</svg>
