<svg width="50" height="50" viewBox="0 0 50 50" fill="none" xmlns="http://www.w3.org/2000/svg">
<path d="M10.5 14.9474C10.5 20.4317 14.7623 24.8947 20 24.8947C25.2377 24.8947 29.5 20.4317 29.5 14.9474C29.5 9.46305 25.2377 5 20 5C14.7623 5 10.5 9.46305 10.5 14.9474ZM36.8889 47H39V44.7895C39 36.2591 32.369 29.3158 24.2222 29.3158H15.7778C7.62889 29.3158 1 36.2591 1 44.7895V47H3.11111H5.22222H34.7778H36.8889Z" fill="white"/>
<path d="M47.9949 3.43168C47.1195 2.50852 45.9693 2 44.7545 2C43.6127 2 42.528 2.45056 41.678 3.2717C40.8281 2.45056 39.7441 2 38.6016 2C37.3868 2 36.2366 2.50852 35.3582 3.43495C33.5466 5.36372 33.5474 8.38053 35.3597 10.3011L41.678 17L47.9964 10.3011C49.8087 8.38053 49.8094 5.36372 47.9949 3.43168Z" fill="white"/>
</svg>
