<svg width="350" height="347" viewBox="0 0 350 347" fill="none" xmlns="http://www.w3.org/2000/svg">
<path d="M350 168.238C349.886 166.138 349.033 164.147 347.592 162.616C346.151 161.085 344.214 160.114 342.125 159.875L320.553 156.383C319.583 156.224 318.69 155.755 318.007 155.047C317.325 154.339 316.89 153.43 316.767 152.454C316.355 149.804 315.925 147.053 315.337 144.444C315.147 143.496 315.258 142.511 315.655 141.629C316.051 140.747 316.714 140.01 317.549 139.523L336.715 128.879C338.618 127.909 340.098 126.274 340.874 124.283C341.65 122.293 341.667 120.087 340.922 118.085L337.599 108.914C336.87 106.906 335.425 105.236 333.543 104.225C331.66 103.215 329.47 102.934 327.393 103.437L305.897 107.644C304.935 107.817 303.944 107.682 303.064 107.257C302.185 106.832 301.462 106.14 301 105.28C299.746 102.932 298.383 100.543 296.962 98.1956C296.445 97.3593 296.203 96.3825 296.27 95.4019C296.336 94.4212 296.707 93.4859 297.332 92.7269L311.635 76.2113C313.086 74.6491 313.92 72.6121 313.981 70.4804C314.041 68.3486 313.324 66.2677 311.963 64.6259L305.72 57.1295C304.362 55.4842 302.442 54.4012 300.331 54.0904C298.22 53.7795 296.069 54.2629 294.295 55.4468L275.474 66.7461C274.639 67.2461 273.666 67.4644 272.698 67.369C271.73 67.2736 270.818 66.8694 270.097 66.2161C268.019 64.3903 265.933 62.6319 263.897 61.0081C263.131 60.4042 262.578 59.5721 262.318 58.6325C262.058 57.693 262.104 56.695 262.45 55.7834L270.24 35.2545C271.089 33.2958 271.188 31.0936 270.52 29.0663C269.851 27.0391 268.461 25.328 266.614 24.2582L258.133 19.3363C256.284 18.2698 254.106 17.9231 252.016 18.3624C249.927 18.8017 248.073 19.9962 246.809 21.7173L233.053 38.9649C232.56 39.7185 231.819 40.2759 230.959 40.5402C230.098 40.8046 229.172 40.7592 228.341 40.412C227.82 40.2017 223.487 38.4264 220.113 37.299C219.188 36.9974 218.383 36.4076 217.817 35.6159C217.251 34.8241 216.953 33.872 216.966 32.8988L217.295 10.9649C217.412 8.82316 216.744 6.71215 215.417 5.02716C214.09 3.34217 212.194 2.19876 210.084 1.81105L200.451 0.128357C198.352 -0.234255 196.193 0.177455 194.374 1.28698C192.556 2.3965 191.202 4.12839 190.565 6.16081L183.414 27.0346C183.093 27.9642 182.481 28.7655 181.669 29.3189C180.856 29.8723 179.886 30.1482 178.904 30.1055H170.701C169.728 30.1217 168.775 29.8325 167.975 29.2786C167.175 28.7247 166.569 27.9341 166.242 27.0178L159.124 6.26177C158.498 4.21451 157.147 2.46573 155.324 1.34291C153.501 0.220095 151.331 -0.199746 149.221 0.162011L139.579 1.8447C137.482 2.22755 135.594 3.35899 134.268 5.02873C132.942 6.69847 132.267 8.79293 132.369 10.9228L132.706 32.9324C132.712 33.9203 132.4 34.8839 131.815 35.6798C131.229 36.4757 130.403 37.0613 129.458 37.3495C127.54 38.0983 123.35 39.6884 121.457 40.4036C119.774 41.0093 117.932 40.3447 116.409 38.6368L102.728 21.8098C101.475 20.0896 99.6317 18.891 97.5509 18.4426C95.4701 17.9941 93.297 18.3272 91.446 19.3783L82.9821 24.2834C81.1146 25.3553 79.71 27.0804 79.0389 29.1263C78.3678 31.1723 78.4777 33.3942 79.3475 35.3639L87.1299 55.8423C87.4694 56.7558 87.514 57.7528 87.2575 58.693C87.0009 59.6332 86.4561 60.4694 85.6996 61.0839C83.6552 62.7666 81.5602 64.4492 79.4737 66.317C78.7572 66.9652 77.8521 67.3671 76.8909 67.464C75.9296 67.5609 74.9625 67.3477 74.1311 66.8555L55.529 55.3375C53.7433 54.1738 51.594 53.7025 49.4853 54.0124C47.3765 54.3223 45.4536 55.3919 44.0782 57.0202L37.8523 64.5081C36.4706 66.138 35.7384 68.2201 35.7959 70.3561C35.8533 72.492 36.6963 74.5318 38.1636 76.0851L52.5422 92.5754C53.1799 93.3193 53.5611 94.2487 53.6293 95.2261C53.6975 96.2036 53.4491 97.1769 52.9208 98.0021C51.4821 100.291 50.1107 102.697 48.8655 105.103C48.3997 105.969 47.6717 106.664 46.786 107.091C45.9003 107.517 44.9023 107.652 43.9352 107.476L22.4725 103.328C20.3944 102.826 18.2045 103.108 16.3206 104.118C14.4367 105.128 12.9907 106.797 12.2586 108.805L8.89317 117.959C8.14742 119.963 8.16387 122.172 8.9394 124.165C9.71493 126.158 11.1955 127.797 13.0999 128.77L32.2658 139.413C33.1277 139.889 33.8113 140.632 34.2136 141.531C34.6158 142.429 34.7147 143.434 34.4953 144.394L34.3018 145.437C33.8559 147.793 33.4605 150.023 33.065 152.395C32.9312 153.358 32.4963 154.255 31.8223 154.956C31.1483 155.657 30.2699 156.127 29.3126 156.299L7.69004 159.791C5.57782 160.052 3.63283 161.073 2.21788 162.663C0.80293 164.253 0.0146686 166.303 0.000143455 168.431V178.174C-0.0121745 180.312 0.769173 182.378 2.1929 183.973C3.61662 185.567 5.58143 186.577 7.70687 186.806L29.3126 190.289C30.2835 190.447 31.1771 190.915 31.8597 191.624C32.5422 192.332 32.9769 193.242 33.0987 194.218C33.5109 196.877 33.94 199.62 34.529 202.228C34.7187 203.177 34.6075 204.161 34.2108 205.043C33.8141 205.926 33.1518 206.662 32.3162 207.15L13.1588 217.81C11.2557 218.78 9.77554 220.416 8.9999 222.406C8.22426 224.396 8.20723 226.602 8.95206 228.604L12.3174 237.775C13.0479 239.783 14.4923 241.451 16.3749 242.461C18.2574 243.472 20.4461 243.753 22.523 243.252L44.0194 239.087C44.9806 238.914 45.972 239.05 46.8516 239.474C47.7311 239.899 48.4538 240.591 48.916 241.452C50.178 243.807 51.541 246.197 52.9545 248.536C53.4733 249.371 53.7167 250.348 53.6503 251.33C53.5839 252.311 53.211 253.247 52.5843 254.004L38.2814 270.528C36.8137 272.076 35.9611 274.106 35.8836 276.237C35.8062 278.369 36.5092 280.455 37.8607 282.105L44.0951 289.602C45.4532 291.247 47.3734 292.33 49.4841 292.641C51.5948 292.952 53.7458 292.468 55.5205 291.284L74.3415 279.985C75.1759 279.485 76.149 279.267 77.1171 279.362C78.0852 279.458 78.9969 279.862 79.7177 280.515C81.8042 282.341 83.9244 284.099 85.9184 285.723C86.6837 286.327 87.2366 287.159 87.4968 288.099C87.757 289.038 87.711 290.036 87.3655 290.948L79.5746 311.477C78.7262 313.436 78.6268 315.638 79.2953 317.665C79.9638 319.692 81.3537 321.403 83.2008 322.473L91.7068 327.387C93.5543 328.453 95.7304 328.801 97.8184 328.363C99.9064 327.926 101.76 326.733 103.023 325.014L116.947 307.893C118.117 306.437 119.976 305.789 121.356 306.345C124.275 307.556 126.236 308.238 129.71 309.399C130.636 309.701 131.441 310.291 132.008 311.082C132.576 311.874 132.876 312.825 132.865 313.799L132.529 335.716C132.415 337.857 133.084 339.966 134.411 341.65C135.737 343.334 137.631 344.479 139.739 344.87L149.373 346.552C151.472 346.917 153.632 346.506 155.451 345.396C157.269 344.286 158.623 342.553 159.258 340.52L166.41 319.68C166.737 318.755 167.351 317.958 168.162 317.406C168.973 316.854 169.939 316.574 170.92 316.609H179.123C180.096 316.592 181.05 316.88 181.85 317.434C182.65 317.988 183.256 318.78 183.582 319.697L190.708 340.453C191.26 342.255 192.375 343.832 193.889 344.954C195.403 346.076 197.237 346.683 199.121 346.687C199.624 346.688 200.125 346.643 200.619 346.552L210.269 344.87C212.365 344.485 214.251 343.353 215.575 341.683C216.9 340.014 217.573 337.92 217.471 335.792L217.135 313.782C217.128 312.812 217.43 311.866 217.998 311.079C218.565 310.293 219.368 309.707 220.29 309.407C223.52 308.322 225.784 307.447 227.786 306.681L228.291 306.479C230.865 305.587 232.102 306.597 232.893 307.581L246.986 324.938C248.249 326.655 250.1 327.846 252.186 328.284C254.272 328.722 256.447 328.375 258.293 327.311L266.766 322.406C268.619 321.335 270.013 319.62 270.682 317.587C271.351 315.554 271.247 313.346 270.392 311.384L262.618 290.906C262.275 289.994 262.228 288.996 262.483 288.056C262.738 287.115 263.283 286.278 264.04 285.664C266.084 283.982 268.179 282.299 270.266 280.431C270.987 279.781 271.897 279.38 272.864 279.286C273.83 279.192 274.801 279.41 275.633 279.909L294.471 291.184C296.257 292.347 298.406 292.818 300.515 292.509C302.624 292.199 304.546 291.129 305.922 289.501L312.148 282.013C313.529 280.384 314.261 278.304 314.203 276.169C314.146 274.035 313.303 271.996 311.837 270.444L297.483 253.895C296.845 253.151 296.464 252.222 296.396 251.244C296.328 250.267 296.576 249.294 297.105 248.468C298.543 246.188 299.915 243.782 301.16 241.367C301.629 240.505 302.357 239.811 303.242 239.385C304.127 238.959 305.123 238.823 306.09 238.995L327.528 243.176C329.606 243.678 331.796 243.397 333.68 242.386C335.563 241.376 337.009 239.708 337.742 237.699L341.065 228.545C341.81 226.542 341.793 224.335 341.018 222.343C340.242 220.351 338.762 218.714 336.858 217.742L317.675 207.083C316.826 206.602 316.153 205.861 315.758 204.968C315.362 204.076 315.265 203.079 315.48 202.127L315.673 201.075C316.119 198.72 316.514 196.498 316.91 194.126C317.044 193.163 317.479 192.266 318.153 191.565C318.827 190.864 319.705 190.394 320.662 190.222L342.285 186.739C344.402 186.481 346.354 185.461 347.773 183.869C349.193 182.277 349.985 180.223 350 178.09V168.238V168.238ZM103.982 261.913C90.7067 251.231 80.0025 237.7 72.6612 222.323C65.3199 206.946 61.5293 190.115 61.5696 173.075C61.61 156.036 65.4804 139.223 72.8945 123.881C80.3087 108.538 91.0768 95.0591 104.403 84.4396L154.883 173.294L103.982 261.913ZM175 287.019C161.047 287.032 147.212 284.45 134.203 279.405L185.096 190.836H287.084C278.662 245.238 231.614 287.019 175 287.019ZM185.147 155.853L134.708 67.0911C147.572 62.1751 161.229 59.6599 175 59.6704C231.614 59.6704 278.662 101.452 287.084 155.853H185.147Z" fill="black"/>
</svg>
