<svg width="50" height="52" viewBox="0 0 50 52" fill="none" xmlns="http://www.w3.org/2000/svg">
<path d="M25 16.7425C23.2339 16.7425 21.5075 17.2662 20.0391 18.2474C18.5707 19.2286 17.4262 20.6231 16.7504 22.2548C16.0745 23.8864 15.8977 25.6818 16.2422 27.4139C16.5868 29.146 17.4372 30.7371 18.686 31.9859C19.9348 33.2347 21.5258 34.0851 23.258 34.4296C24.9901 34.7742 26.7855 34.5973 28.4171 33.9215C30.0487 33.2457 31.4433 32.1012 32.4245 30.6327C33.4056 29.1643 33.9293 27.4379 33.9293 25.6719C33.9223 23.3058 32.9792 21.0387 31.3062 19.3657C29.6331 17.6926 27.366 16.7496 25 16.7425V16.7425ZM44.2785 25.6719C44.2738 26.5062 44.2127 27.3393 44.0954 28.1654L49.53 32.4202C49.7667 32.6157 49.9262 32.8889 49.98 33.1911C50.0338 33.4933 49.9783 33.8048 49.8236 34.0699L44.6825 42.9457C44.5262 43.2084 44.2823 43.4077 43.9936 43.5083C43.7049 43.609 43.39 43.6046 43.1042 43.496L36.7142 40.9288C35.3836 41.9534 33.9275 42.8037 32.3812 43.4591L31.4258 50.2432C31.3723 50.5471 31.215 50.8229 30.9806 51.0237C30.7463 51.2244 30.4496 51.3375 30.1411 51.3437H19.8589C19.5561 51.3378 19.2641 51.2294 19.0308 51.0363C18.7975 50.8431 18.6365 50.5765 18.5742 50.28L17.6188 43.496C16.0683 42.8482 14.6111 41.9965 13.2858 40.9634L6.89575 43.5306C6.61011 43.6393 6.29528 43.6438 6.00662 43.5434C5.71796 43.4429 5.47395 43.244 5.31749 42.9814L0.17642 34.1068C0.0216722 33.8417 -0.033767 33.5302 0.0200096 33.228C0.0737862 32.9257 0.233274 32.6525 0.469973 32.4571L5.9046 28.2022C5.78868 27.3636 5.72753 26.5184 5.72154 25.6719C5.72619 24.8375 5.78734 24.0044 5.9046 23.1783L0.469973 18.9235C0.233274 18.7281 0.0737862 18.4548 0.0200096 18.1526C-0.033767 17.8504 0.0216722 17.5389 0.17642 17.2738L5.31749 8.39805C5.47378 8.1353 5.71771 7.93607 6.00639 7.83542C6.29506 7.73478 6.60998 7.73915 6.89575 7.84778L13.2858 10.415C14.6164 9.39034 16.0725 8.53999 17.6188 7.88461L18.5742 1.10054C18.6277 0.796664 18.785 0.520787 19.0194 0.320055C19.2537 0.119322 19.5504 0.00619333 19.8589 0H30.1411C30.4439 0.00589508 30.7359 0.114286 30.9692 0.307478C31.2025 0.50067 31.3635 0.767253 31.4258 1.06371L32.3812 7.84778C33.9337 8.49512 35.3927 9.34684 36.7198 10.3804L43.1042 7.81318C43.3899 7.70445 43.7047 7.69991 43.9934 7.80035C44.282 7.90079 44.5261 8.09978 44.6825 8.36233L49.8236 17.2381C49.9783 17.5032 50.0338 17.8147 49.98 18.1169C49.9262 18.4191 49.7667 18.6924 49.53 18.8878L44.0954 23.1426C44.2113 23.9808 44.2724 24.8257 44.2785 25.6719V25.6719Z" fill="white"/>
</svg>
