<svg width="50" height="45" viewBox="0 0 50 45" fill="none" xmlns="http://www.w3.org/2000/svg">
<path d="M33.333 22.5C31.1914 22.5 29.1206 21.3264 27.4997 19.1966C25.9237 17.1192 24.9612 14.3488 24.7914 11.3983C24.6102 8.25084 25.3925 5.35653 26.9935 3.24716C28.5945 1.13778 30.8331 0 33.333 0C35.8153 0 38.0601 1.15824 39.6559 3.2625C41.2674 5.38721 42.0517 8.27641 41.8705 11.397C41.6965 14.3514 40.7351 17.1204 39.1622 19.1953C37.5455 21.3264 35.4757 22.5 33.333 22.5ZM47.0653 45H19.6019C19.1603 45.0029 18.7241 44.8814 18.3268 44.6449C17.9295 44.4084 17.5817 44.0632 17.3102 43.6359C17.0222 43.1726 16.8233 42.6354 16.7284 42.0644C16.6335 41.4935 16.6451 40.9036 16.7623 40.3389C17.6394 36.0166 19.8123 32.4319 23.0456 29.9735C25.9154 27.7926 29.5685 26.5909 33.333 26.5909C37.1716 26.5909 40.7288 27.7414 43.6153 29.9211C46.8559 32.3667 49.0319 35.9718 49.9048 40.3465C50.0206 40.9117 50.0309 41.5015 49.9349 42.0722C49.839 42.6429 49.6393 43.1796 49.3507 43.6423C49.0794 44.0676 48.7324 44.4111 48.3363 44.6465C47.9401 44.8818 47.5054 45.0027 47.0653 45V45ZM13.6456 23.0113C9.98004 23.0113 6.75714 18.8284 6.45818 13.6879C6.31027 11.0544 6.97901 8.61902 8.33317 6.83309C9.67275 5.06505 11.5623 4.0909 13.6456 4.0909C15.729 4.0909 17.604 5.07017 18.9508 6.84843C20.3154 8.64843 20.9821 11.0787 20.8258 13.6905C20.5269 18.8297 17.305 23.0113 13.6456 23.0113ZM20.4852 27.0319C18.6529 25.9325 16.2748 25.3828 13.6467 25.3828C10.5779 25.3828 7.59776 26.3646 5.25402 28.1467C2.59674 30.1704 0.809252 33.1172 0.0873811 36.675C-0.0182589 37.1867 -0.0282506 37.7211 0.0581535 38.2383C0.144558 38.7554 0.325121 39.2419 0.586337 39.6613C0.834198 40.0518 1.15173 40.3674 1.51453 40.5837C1.87732 40.8 2.2757 40.9113 2.67903 40.909H14.2415C14.4366 40.909 14.6256 40.8249 14.7754 40.6714C14.9252 40.5179 15.0264 40.3048 15.0613 40.0691C15.0727 39.9886 15.0873 39.9081 15.104 39.8288C15.9873 35.4745 18.0571 31.7953 21.1154 29.1132C21.2279 29.0137 21.3184 28.8813 21.3786 28.728C21.4389 28.5748 21.467 28.4055 21.4605 28.2355C21.454 28.0655 21.413 27.9002 21.3413 27.7545C21.2696 27.6089 21.1694 27.4875 21.0498 27.4014C20.8862 27.2838 20.6987 27.1598 20.4852 27.0319V27.0319Z" fill="white"/>
</svg>
