<svg width="512" height="512" viewBox="0 0 512 512" fill="none" xmlns="http://www.w3.org/2000/svg">
<path d="M346.65 304.3C321.755 282.17 289.604 269.946 256.295 269.946C222.986 269.946 190.835 282.17 165.94 304.3C163.836 306.12 162.115 308.34 160.877 310.831C159.638 313.322 158.907 316.034 158.726 318.81C158.544 321.586 158.916 324.371 159.82 327.002C160.724 329.633 162.141 332.058 163.99 334.136C165.838 336.215 168.082 337.906 170.589 339.11C173.097 340.314 175.819 341.009 178.597 341.152C181.375 341.296 184.154 340.886 186.773 339.947C189.391 339.007 191.797 337.557 193.85 335.68C211.056 320.388 233.275 311.941 256.295 311.941C279.315 311.941 301.534 320.388 318.74 335.68C322.904 339.381 328.367 341.276 333.929 340.949C339.49 340.622 344.694 338.099 348.395 333.935C352.096 329.771 353.991 324.307 353.664 318.746C353.337 313.185 350.814 307.981 346.65 304.28V304.3Z" fill="black"/>
<path d="M256.28 183.7C199.898 183.622 145.608 205.052 104.48 243.62C102.398 245.485 100.709 247.747 99.5123 250.274C98.3158 252.801 97.6358 255.541 97.5122 258.334C97.3886 261.127 97.8239 263.916 98.7926 266.538C99.7612 269.161 101.244 271.563 103.153 273.605C105.063 275.647 107.361 277.287 109.912 278.429C112.464 279.572 115.218 280.193 118.013 280.257C120.808 280.32 123.587 279.825 126.188 278.801C128.789 277.776 131.16 276.243 133.16 274.29C166.555 243.069 210.564 225.7 256.28 225.7C301.996 225.7 346.005 243.069 379.4 274.29C381.401 276.243 383.771 277.776 386.372 278.801C388.973 279.825 391.753 280.32 394.548 280.257C397.342 280.193 400.096 279.572 402.648 278.429C405.2 277.287 407.498 275.647 409.407 273.605C411.316 271.563 412.799 269.161 413.768 266.538C414.736 263.916 415.172 261.127 415.048 258.334C414.924 255.541 414.244 252.801 413.048 250.274C411.851 247.747 410.162 245.485 408.08 243.62C366.952 205.052 312.663 183.622 256.28 183.7V183.7Z" fill="black"/>
<path d="M462 175.86C405.383 125.344 332.158 97.4253 256.28 97.4253C180.403 97.4253 107.177 125.344 50.5602 175.86C48.4323 177.678 46.6892 179.902 45.4333 182.403C44.1774 184.904 43.434 187.631 43.2468 190.423C43.0595 193.215 43.4323 196.016 44.3431 198.663C45.2539 201.309 46.6844 203.746 48.5506 205.831C50.4167 207.917 52.6808 209.608 55.2099 210.806C57.739 212.004 60.482 212.685 63.2778 212.807C66.0736 212.93 68.8657 212.493 71.4901 211.522C74.1145 210.55 76.5183 209.064 78.5602 207.15C127.476 163.524 190.731 139.415 256.275 139.415C321.819 139.415 385.074 163.524 433.99 207.15C438.142 210.863 443.599 212.775 449.16 212.464C454.722 212.154 459.932 209.647 463.645 205.495C467.358 201.343 469.27 195.886 468.959 190.325C468.649 184.764 466.142 179.553 461.99 175.84L462 175.86Z" fill="black"/>
<path d="M256.28 425.41C273.953 425.41 288.28 411.083 288.28 393.41C288.28 375.737 273.953 361.41 256.28 361.41C238.607 361.41 224.28 375.737 224.28 393.41C224.28 411.083 238.607 425.41 256.28 425.41Z" fill="black"/>
</svg>
